<svg xmlns="http://www.w3.org/2000/svg" viewBox="0 0 980 260" role="img" aria-labelledby="title desc">
  <title>Kasoko Travels logo</title>
  <desc>Premium Kasoko Travels logo with circular location icon and luxury wordmark.</desc>
  <defs>
    <linearGradient id="gold" x1="0" y1="0" x2="1" y2="1">
      <stop offset="0" stop-color="#f7cf74"/>
      <stop offset="0.55" stop-color="#e9ae3f"/>
      <stop offset="1" stop-color="#c9851e"/>
    </linearGradient>
    <linearGradient id="goldText" x1="0" y1="0" x2="1" y2="0">
      <stop offset="0" stop-color="#f7cf74"/>
      <stop offset="0.6" stop-color="#e9ae3f"/>
      <stop offset="1" stop-color="#d39224"/>
    </linearGradient>
    <filter id="softShadow" x="-20%" y="-20%" width="140%" height="140%">
      <feDropShadow dx="0" dy="10" stdDeviation="12" flood-color="#09131d" flood-opacity="0.14"/>
    </filter>
  </defs>
  <g transform="translate(18 30)" filter="url(#softShadow)">
    <circle cx="98" cy="98" r="82" fill="#ffffff"/>
    <circle cx="98" cy="98" r="81" fill="none" stroke="url(#gold)" stroke-opacity="0.55" stroke-width="2"/>
    <g transform="translate(53 42)">
      <path d="M45.3 0C20.3 0 0 20.4 0 45.5c0 32.8 36.9 76.5 43 83.4 1 1.2 2.8 1.2 3.9 0 6.1-6.9 43-50.6 43-83.4C90.6 20.4 70.3 0 45.3 0Z" fill="url(#gold)"/>
      <circle cx="45.3" cy="45.2" r="13.2" fill="#17212c"/>
      <rect x="41.2" y="23.4" width="8.4" height="49.2" rx="4.2" fill="#fffefb"/>
      <path d="M33.5 30.8c8.8-7.4 18-8.1 28.1-3.1-7.4 1.6-12.4 5.8-14 12.9-4.4-4.6-9.1-7.9-14.1-9.8Z" fill="#fffefb"/>
      <path d="M25.4 84.8h39.6l7.1 12.6H18.4z" fill="#d18e23"/>
    </g>
  </g>
  <g transform="translate(220 82)">
    <text x="0" y="52" font-family="Cormorant Garamond, Georgia, 'Times New Roman', serif" font-size="76" letter-spacing="2" font-weight="700" fill="#f7f5ef">KASOKO</text>
    <text x="4" y="104" font-family="Inter, Arial, sans-serif" font-size="33" letter-spacing="12" font-weight="700" fill="url(#goldText)">TRAVELS</text>
  </g>
</svg>